<?xml version="1.0" standalone="no"?>
<!DOCTYPE svg PUBLIC "-//W3C//DTD SVG 20010904//EN"
 "http://www.w3.org/TR/2001/REC-SVG-20010904/DTD/svg10.dtd">
<svg version="1.0" xmlns="http://www.w3.org/2000/svg"
 width="160.000000pt" height="160.000000pt" viewBox="0 0 160.000000 160.000000"
 preserveAspectRatio="xMidYMid meet">
<metadata>
Created by potrace 1.14, written by Peter Selinger 2001-2017
</metadata>
<g transform="translate(0.000000,160.000000) scale(0.100000,-0.100000)"
fill="#000000" stroke="none">
<path d="M1444 1108 c114 -258 16 -617 -221 -813 -137 -113 -280 -162 -452
-152 -176 9 -313 71 -440 198 -152 153 -215 308 -215 534 0 112 3 138 22 185
12 30 22 57 22 60 -1 15 -33 -54 -52 -115 -19 -59 -23 -92 -22 -210 0 -125 3
-149 27 -220 38 -114 91 -199 177 -285 87 -86 158 -131 273 -173 109 -39 288
-49 400 -23 152 37 302 131 400 251 59 73 121 198 141 285 22 94 20 249 -4
345 -19 74 -63 185 -74 185 -3 0 6 -24 18 -52z"/>
<path d="M536 1025 c-43 -40 -76 -146 -61 -195 9 -29 20 -25 44 15 42 72 99
70 146 -5 14 -22 30 -38 35 -35 13 8 12 91 -1 140 -6 21 -26 54 -44 72 -41 41
-81 44 -119 8z"/>
<path d="M945 1017 c-18 -18 -38 -51 -44 -72 -13 -49 -14 -132 -2 -140 5 -3
22 14 38 37 36 54 71 68 108 44 15 -10 33 -33 41 -52 8 -19 18 -34 23 -34 16
0 22 67 11 116 -29 126 -105 171 -175 101z"/>
<path d="M309 694 c-17 -20 -2 -103 31 -173 72 -152 237 -263 413 -277 246
-21 481 147 529 378 18 88 12 90 -124 55 -103 -27 -131 -30 -316 -35 -214 -4
-337 8 -464 48 -48 15 -59 16 -69 4z m176 -76 c86 -19 130 -22 315 -22 210 0
294 10 428 50 28 8 29 -14 3 -73 -22 -47 -34 -52 -191 -80 -118 -21 -386 -23
-485 -5 -170 32 -199 50 -212 128 -6 35 -5 37 18 31 13 -4 69 -17 124 -29z
m305 -182 c189 0 211 2 365 39 30 8 30 7 -15 -39 -55 -58 -137 -109 -209 -130
-106 -31 -262 -17 -361 34 -45 23 -150 111 -150 126 0 7 28 4 88 -10 72 -16
121 -20 282 -20z"/>
</g>
</svg>
